<?xml version="1.0" standalone="no"?><!DOCTYPE svg PUBLIC "-//W3C//DTD SVG 1.1//EN" "http://www.w3.org/Graphics/SVG/1.1/DTD/svg11.dtd"><svg t="1679640851930" class="icon" viewBox="0 0 1024 1024" version="1.1" xmlns="http://www.w3.org/2000/svg" p-id="949" width="32" height="32" xmlns:xlink="http://www.w3.org/1999/xlink"><path d="M806.89 928.22H309.37c-115.2 0-208.94-90.22-208.94-201.13V184.72c0-65.19 55.45-118.23 123.58-118.23h460.94C818.98 66.49 928 171.59 928 300.77v511.58c0 63.89-54.34 115.87-121.11 115.87z m-582.88-795.8c-28.69 0-52.03 23.45-52.03 52.3v542.36c0 74.55 61.64 135.2 137.39 135.2h497.52c27.32 0 49.55-22.41 49.55-49.93V300.77c0-92.83-76.94-168.34-171.49-168.34H224.01z" fill="#ffffff" p-id="950"></path><path d="M740.79 431.05H287.65c-0.93 0-1.69-0.75-1.69-1.69V366.8c0-0.93 0.75-1.69 1.69-1.69H740.8c0.93 0 1.69 0.75 1.69 1.69v62.56c-0.01 0.94-0.77 1.69-1.7 1.69zM612.56 629.59H297.08c-0.93 0-1.69-0.75-1.69-1.69v-62.56c0-0.93 0.75-1.69 1.69-1.69h315.47c0.93 0 1.69 0.75 1.69 1.69v62.56c0 0.93-0.75 1.69-1.68 1.69z" fill="#ffffff" p-id="951"></path></svg>